<svg width="32" height="32" viewBox="0 0 32 32" fill="none" xmlns="http://www.w3.org/2000/svg">
<mask id="mask0_417_4456" style="mask-type:luminance" maskUnits="userSpaceOnUse" x="1" y="0" width="30" height="32">
<path d="M30.4359 0H1.43591V32H30.4359V0Z" fill="white"/>
</mask>
<g mask="url(#mask0_417_4456)">
<mask id="mask1_417_4456" style="mask-type:luminance" maskUnits="userSpaceOnUse" x="1" y="0" width="30" height="32">
<path d="M30.4359 0H1.43591V32H30.4359V0Z" fill="white"/>
</mask>
<g mask="url(#mask1_417_4456)">
<path d="M18.3662 18.4316L16.7796 22.6796C16.7328 22.7973 16.7328 22.9282 16.7796 23.0459L19.5042 30.3571L22.6572 28.5768L18.875 18.4316C18.7879 18.196 18.4532 18.196 18.3662 18.4316Z" fill="#222222"/>
<path d="M21.5391 11.2841C21.452 11.0485 21.1174 11.0485 21.0304 11.2841L19.4437 15.532C19.3968 15.6499 19.3968 15.7808 19.4437 15.8986L23.9088 27.87L27.062 26.0897L21.5391 11.2841Z" fill="#222222"/>
<path d="M15.9359 1.98323C16.0162 1.98323 16.0899 2.00286 16.1635 2.04214L28.1867 8.82962C28.3272 8.90816 28.4142 9.05216 28.4142 9.20925V22.7842C28.4142 22.9413 28.3272 23.0853 28.1867 23.1639L16.1635 29.9579C16.0966 29.9971 16.0162 30.0168 15.9359 30.0168C15.8556 30.0168 15.7819 29.9971 15.7083 29.9579L3.69191 23.1705C3.55134 23.0919 3.4643 22.9479 3.4643 22.7908V9.20925C3.4643 9.05216 3.55134 8.90816 3.69191 8.82962L15.715 2.04214C15.7819 2.00286 15.8623 1.98323 15.9359 1.98323ZM15.9359 0C15.5075 0 15.079 0.11127 14.6974 0.327266L2.67437 7.11475C1.91121 7.54675 1.43591 8.34527 1.43591 9.20925V22.7842C1.43591 23.6482 1.91121 24.4533 2.67437 24.8853L14.6974 31.6726C15.079 31.8886 15.5075 32 15.9359 32C16.3643 32 16.7928 31.8886 17.1744 31.6726L29.1974 24.8853C29.9674 24.4533 30.4359 23.6548 30.4359 22.7842V9.20925C30.4359 8.34527 29.9606 7.54018 29.1974 7.10821L17.1811 0.327266C16.7928 0.11127 16.3643 0 15.9359 0Z" fill="#222222"/>
<path d="M7.9906 27.8831L9.09517 24.9246L11.3177 26.7311L9.24244 28.59L7.9906 27.8831Z" fill="#222222"/>
<path d="M14.9247 8.24048H11.8788C11.6512 8.24048 11.4436 8.37791 11.37 8.58737L4.8363 26.1026L7.98935 27.8829L15.1858 8.59391C15.246 8.42374 15.1188 8.24048 14.9247 8.24048Z" fill="#222222"/>
<path d="M20.2595 8.24048H17.2136C16.986 8.24048 16.7784 8.37791 16.7048 8.58737L9.2406 28.5897L12.3936 30.3702L20.5139 8.60046C20.5807 8.42374 20.447 8.24048 20.2595 8.24048Z" fill="#222222"/>
</g>
</g>
</svg>
