<svg width="24" height="24" viewBox="0 0 24 24" fill="none" xmlns="http://www.w3.org/2000/svg">
<mask id="mask0_417_6801" style="mask-type:luminance" maskUnits="userSpaceOnUse" x="1" y="0" width="22" height="24">
<path d="M22.8271 0H1.07715V24H22.8271V0Z" fill="white"/>
</mask>
<g mask="url(#mask0_417_6801)">
<mask id="mask1_417_6801" style="mask-type:luminance" maskUnits="userSpaceOnUse" x="1" y="0" width="22" height="24">
<path d="M22.8271 0H1.07715V24H22.8271V0Z" fill="white"/>
</mask>
<g mask="url(#mask1_417_6801)">
<path d="M13.7749 13.8237L12.5849 17.0097C12.5498 17.098 12.5498 17.1961 12.5849 17.2844L14.6284 22.7678L16.9931 21.4326L14.1565 13.8237C14.0911 13.647 13.8401 13.647 13.7749 13.8237Z" fill="white"/>
<path d="M16.1546 8.4631C16.0892 8.28639 15.8383 8.28639 15.773 8.4631L14.583 11.649C14.5478 11.7374 14.5478 11.8356 14.583 11.924L17.9318 20.9025L20.2967 19.5673L16.1546 8.4631Z" fill="white"/>
<path d="M11.9521 1.48742C12.0124 1.48742 12.0677 1.50214 12.1229 1.5316L21.1402 6.62222C21.2456 6.68112 21.3108 6.78912 21.3108 6.90694V17.0882C21.3108 17.206 21.2456 17.314 21.1402 17.3729L12.1229 22.4685C12.0727 22.4978 12.0124 22.5126 11.9521 22.5126C11.8919 22.5126 11.8366 22.4978 11.7814 22.4685L2.76915 17.3778C2.66372 17.3189 2.59844 17.2109 2.59844 17.0931V6.90694C2.59844 6.78912 2.66372 6.68112 2.76915 6.62222L11.7865 1.5316C11.8367 1.50214 11.8969 1.48742 11.9521 1.48742ZM11.9521 0C11.6308 0 11.3095 0.0834525 11.0233 0.245449L2.00599 5.33606C1.43362 5.66006 1.07715 6.25895 1.07715 6.90694V17.0882C1.07715 17.7362 1.43362 18.34 2.00599 18.664L11.0233 23.7545C11.3095 23.9165 11.6308 24 11.9521 24C12.2735 24 12.5948 23.9165 12.881 23.7545L21.8982 18.664C22.4758 18.34 22.8271 17.7411 22.8271 17.0882V6.90694C22.8271 6.25895 22.4707 5.65514 21.8982 5.33115L12.8861 0.245449C12.5948 0.0834525 12.2735 0 11.9521 0Z" fill="white"/>
<path d="M5.99316 20.9123L6.82159 18.6934L8.48849 20.0483L6.93204 21.4424L5.99316 20.9123Z" fill="white"/>
<path d="M11.1933 6.18042H8.90883C8.73814 6.18042 8.58243 6.2835 8.52723 6.44059L3.62695 19.577L5.99174 20.9122L11.3891 6.4455C11.4342 6.31787 11.3388 6.18042 11.1933 6.18042Z" fill="white"/>
<path d="M15.1948 6.18042H12.9104C12.7397 6.18042 12.584 6.2835 12.5288 6.44059L6.93066 21.4424L9.29542 22.7777L15.3856 6.4504C15.4358 6.31787 15.3355 6.18042 15.1948 6.18042Z" fill="white"/>
</g>
</g>
</svg>
