<svg width="42" height="42" viewBox="0 0 42 42" fill="none" xmlns="http://www.w3.org/2000/svg">
<g clip-path="url(#clip0_105_4453)">
<path fill-rule="evenodd" clip-rule="evenodd" d="M9.96094 12.3047C9.72953 12.7774 9.58674 13.3042 9.5572 13.8606H11.6252C11.635 13.314 11.6842 12.7921 11.763 12.3047H9.96094ZM12.477 12.3047C12.3933 12.7774 12.344 13.3042 12.3342 13.8606H12.7231C12.7231 13.8606 12.7035 13.8852 12.6985 13.9C12.6838 13.9295 12.6247 14.028 12.6247 14.1609C12.6247 14.22 12.6394 14.2692 12.6394 14.2742C12.6394 14.2889 12.6444 14.2988 12.6493 14.3037C12.6493 14.3185 12.6591 14.3283 12.6591 14.3332C12.6641 14.348 12.6739 14.3677 12.6788 14.3874C12.6936 14.4268 12.7182 14.4809 12.7478 14.545V14.5597H12.344C12.3637 14.9979 12.4031 15.4164 12.4671 15.8054H13.3041C13.4026 16.0319 13.5109 16.2732 13.6193 16.5144H12.6099C12.669 16.7409 12.733 16.9526 12.8068 17.1447C12.9496 17.5287 13.117 17.8094 13.2795 17.9965C13.442 18.1786 13.5799 18.2328 13.6783 18.2328C13.7768 18.2328 13.9147 18.1786 14.0772 17.9965C14.1215 17.9472 14.1609 17.8931 14.2052 17.834C14.279 17.9915 14.343 18.1442 14.407 18.282C14.5055 18.4987 14.5892 18.6858 14.6532 18.8187L14.6631 18.8433C14.343 18.9073 14.0181 18.9418 13.6783 18.9418C11.0048 18.9418 8.84326 16.7754 8.84326 14.1067C8.84326 11.4381 11.0097 9.27173 13.6783 9.27173C16.347 9.27173 18.5134 11.4381 18.5134 14.1067C18.5134 14.8502 18.346 15.5543 18.0456 16.1845C18.0161 16.1353 17.9767 16.0861 17.9226 16.0467C17.9029 16.0319 17.8881 16.0221 17.8832 16.0171C17.8832 16.0171 17.8733 16.0073 17.8684 16.0073C17.8635 16.0073 17.8536 15.9974 17.8487 15.9925C17.8339 15.9876 17.8192 15.9777 17.7995 15.9679C17.765 15.9482 17.7108 15.9187 17.6518 15.8842C17.5976 15.8547 17.5287 15.8153 17.4548 15.7759C17.6222 15.4017 17.7355 14.993 17.7798 14.5696H15.7217C15.7217 14.6631 15.7118 14.7517 15.7069 14.8453L15.6232 14.801C15.0717 14.5105 14.5252 14.2151 14.1067 13.9984C14.0132 13.9492 13.9294 13.9049 13.8507 13.8655H15.0176C15.0077 13.3091 14.9536 12.7823 14.8748 12.3096H12.4671L12.477 12.3047ZM14.9979 14.9536C15.2195 15.0718 15.4509 15.1949 15.6774 15.313C15.4509 15.1949 15.2244 15.0718 14.9979 14.9536ZM16.603 15.8103C17.1988 16.1304 17.6321 16.3667 17.6468 16.3766C17.6764 16.4012 17.6862 16.4307 17.6911 16.4652C17.6911 16.4307 17.6764 16.3963 17.6468 16.3766C17.6321 16.3618 17.1938 16.1255 16.603 15.8103ZM14.2692 14.5646C13.9836 14.412 13.7325 14.2791 13.5454 14.1855L13.5011 14.1609C13.3238 14.0674 13.2155 14.0181 13.2106 14.0181C13.2254 14.0181 13.6685 14.2495 14.2692 14.5646ZM13.117 14.0674C13.117 14.0674 13.1121 14.0772 13.1072 14.0772L13.117 14.0674ZM12.6345 11.5907C12.6887 11.3987 12.7428 11.2165 12.8068 11.0491C12.9496 10.6651 13.117 10.3844 13.2795 10.1973C13.442 10.0152 13.5799 9.96105 13.6783 9.96105C13.7768 9.96105 13.9147 10.0152 14.0772 10.1973C14.2396 10.3795 14.407 10.6651 14.5498 11.0491C14.6138 11.2165 14.6729 11.3938 14.7222 11.5907H12.6247H12.6345ZM15.6035 12.2998C15.6823 12.7872 15.7266 13.3091 15.7414 13.8556H17.8093C17.7748 13.2993 17.637 12.7774 17.4056 12.2998H15.6035ZM14.9142 10.153C15.7414 10.4091 16.4553 10.9211 16.9674 11.5907H15.4607C15.3918 11.3052 15.3081 11.0393 15.2195 10.798C15.1308 10.5617 15.0274 10.3451 14.9142 10.1481V10.153ZM12.4523 10.153C11.6252 10.4091 10.9112 10.9211 10.3992 11.5907H11.9058C11.9747 11.3052 12.0584 11.0393 12.1471 10.798C12.2357 10.5617 12.3391 10.3451 12.4523 10.1481V10.153ZM12.4523 18.0408C12.3391 17.8487 12.2357 17.6272 12.1471 17.3908C12.0437 17.125 11.9551 16.8295 11.8812 16.5095H10.3302C10.8472 17.2234 11.5907 17.77 12.4523 18.0358V18.0408ZM11.7483 15.8054C11.6892 15.4115 11.6498 14.993 11.635 14.5597H9.57689C9.62613 14.9979 9.7443 15.4164 9.92155 15.8054H11.7483Z" fill="black"/>
<path fill-rule="evenodd" clip-rule="evenodd" d="M13.1123 14.0723C13.0827 14.1018 13.0581 14.1412 13.0581 14.1658C13.0581 14.22 15.1113 18.7941 15.1556 18.8483C15.2147 18.9221 15.3427 18.8975 15.4116 18.799C15.4461 18.7498 15.5741 18.5331 15.6972 18.3214L15.9188 17.9374L16.5539 18.5725C16.9281 18.9467 17.2137 19.2077 17.2531 19.2077C17.3368 19.2077 17.9916 18.5627 17.9916 18.4741C17.9916 18.4347 17.7307 18.1442 17.3614 17.77L16.7312 17.1299L17.1152 16.9133C17.3269 16.7951 17.5436 16.6671 17.5977 16.6326C17.6962 16.5637 17.7258 16.4357 17.6519 16.3766C17.5977 16.3323 13.26 14.0132 13.2058 14.0132C13.1861 14.0132 13.1418 14.0378 13.1123 14.0674V14.0723Z" fill="black"/>
<path fill-rule="evenodd" clip-rule="evenodd" d="M31.8123 11.7434L12.3096 31.251L11.3101 30.2515L30.8128 10.7439L31.8123 11.7434Z" fill="black"/>
<path d="M31.7287 28.8484V26.3471H31.6401L29.9759 30.4092L28.3117 26.3471H28.2231V32.8021H27.3516V24.9094H28.5726L29.9611 28.3905H30.03L31.4185 24.9094H32.5953V32.8021H31.7238V28.8434L31.7287 28.8484Z" fill="black"/>
<path d="M41 1H1V41H41V1Z" stroke="black" stroke-width="2" stroke-miterlimit="10"/>
</g>
<defs>
<clipPath id="clip0_105_4453">
<rect width="42" height="42" fill="white"/>
</clipPath>
</defs>
</svg>
