<svg width="93" height="70" viewBox="0 0 93 70" fill="none" xmlns="http://www.w3.org/2000/svg">
<g clip-path="url(#clip0_106_4475)">
<path d="M34.3797 67.1108V69.0052H23.5374C23.2594 64.2242 23.2594 65.2165 20.016 52.1368C16.3092 37.1624 15.8459 36.8923 13.1585 36.8923H12.9736V63.5025C12.9736 66.2087 13.159 66.299 17.4217 67.1108V69.0052H0V67.1108C4.26277 66.299 4.4481 66.2087 4.4481 63.5025V6.85323C4.4481 4.14701 4.26277 4.05681 0 3.24494V1.35059H16.3092C26.3175 1.35059 31.0436 7.21406 31.0436 17.2266C31.0436 28.9536 25.3908 34.817 17.9773 35.8093C22.9814 36.2604 24.0934 37.7939 28.1709 51.5049C32.7116 66.6598 32.2483 66.1185 34.3797 67.1108ZM22.0547 18.49C22.0547 8.29655 19.9233 3.33515 16.3092 3.33515C13.8999 3.33515 12.9732 4.32743 12.9732 9.82962V34.546H14.5485C19.0893 34.5464 22.0547 30.3067 22.0547 18.49Z" fill="white"/>
<path d="M63.7502 42.6679V44.5622H47.4405V42.6679C52.7226 42.1266 53.0006 42.2169 50.7766 37.3457L45.9582 26.8816L41.7881 37.3457C39.8421 42.3071 40.3054 42.1266 44.1975 42.6679V44.5622H32.9846V42.6679C36.3207 41.856 36.0427 41.405 38.1741 37.3457L44.9389 24.6264L37.5254 8.47977C35.672 4.42044 35.3013 4.05961 32.7993 3.15754V1.26318H49.109V3.15754C43.2708 3.69878 43.5488 3.60857 45.7729 8.47977L50.8697 19.5753L54.7613 8.47977C56.5225 3.51837 56.244 3.69878 52.3524 3.15754V1.26318H63.5648V3.15754C60.2288 3.9694 60.3214 4.42044 58.3754 8.47977L51.889 21.8305L59.0241 37.3457C60.877 41.405 61.2477 41.7658 63.7502 42.6679Z" fill="white"/>
<path d="M66.5342 35.0902C66.5342 11.4563 72.5577 0 82.9361 0C86.8278 0 89.979 1.53352 92.0177 3.51808V21.4689H91.091C85.4387 5.41199 84.2335 1.98411 81.2686 1.98411C77.0985 1.98411 75.6158 12.4482 75.6158 34.4583C75.6158 53.3112 78.9519 68.015 82.7508 68.015C85.0675 68.015 85.6236 66.2108 91.091 48.7111H92.0177V66.4819C90.0717 68.3763 86.6429 70 82.9361 70C72.5577 70 66.5342 59.4457 66.5342 35.0902Z" fill="white"/>
</g>
<defs>
<clipPath id="clip0_106_4475">
<rect width="93" height="70" fill="white"/>
</clipPath>
</defs>
</svg>
