<svg width="32" height="32" viewBox="0 0 32 32" fill="none" xmlns="http://www.w3.org/2000/svg">
<path d="M10.6667 29.3333C8.82226 29.3333 7.25004 28.6833 5.95004 27.3833C4.65004 26.0833 4.00004 24.5111 4.00004 22.6667V10.6667C3.26671 10.6667 2.63893 10.4056 2.11671 9.88334C1.59449 9.36112 1.33337 8.73334 1.33337 8.00001V5.33334C1.33337 4.60001 1.59449 3.97223 2.11671 3.45001C2.63893 2.92778 3.26671 2.66667 4.00004 2.66667H17.3334C18.0667 2.66667 18.6945 2.92778 19.2167 3.45001C19.7389 3.97223 20 4.60001 20 5.33334V8.00001C20 8.73334 19.7389 9.36112 19.2167 9.88334C18.6945 10.4056 18.0667 10.6667 17.3334 10.6667V14.7C16.4 15.3 15.6056 16.05 14.95 16.95C14.2945 17.85 13.8334 18.8667 13.5667 20H10.6667V17.3333H14.6667V16H10.6667V13.3333H14.6667V10.6667H6.66671V22.6667C6.66671 23.7778 7.0556 24.7222 7.83337 25.5C8.61115 26.2778 9.5556 26.6667 10.6667 26.6667C11.3334 26.6667 11.9445 26.5222 12.5 26.2333C13.0556 25.9445 13.5223 25.5445 13.9 25.0333C14.0778 25.4778 14.2778 25.9 14.5 26.3C14.7223 26.7 14.9889 27.0889 15.3 27.4667C14.7 28.0445 14.0056 28.5 13.2167 28.8333C12.4278 29.1667 11.5778 29.3333 10.6667 29.3333ZM10.6667 24V21.3333H13.3667C13.3223 21.7778 13.3167 22.2222 13.35 22.6667C13.3834 23.1111 13.4556 23.5556 13.5667 24H10.6667ZM4.00004 8.00001H17.3334V5.33334H4.00004V8.00001ZM22 25.3333C22.9334 25.3333 23.7223 25.0111 24.3667 24.3667C25.0112 23.7222 25.3334 22.9333 25.3334 22C25.3334 21.0667 25.0112 20.2778 24.3667 19.6333C23.7223 18.9889 22.9334 18.6667 22 18.6667C21.0667 18.6667 20.2778 18.9889 19.6334 19.6333C18.9889 20.2778 18.6667 21.0667 18.6667 22C18.6667 22.9333 18.9889 23.7222 19.6334 24.3667C20.2778 25.0111 21.0667 25.3333 22 25.3333ZM28.8 30.6667L25.2 27.0667C24.7112 27.3778 24.2 27.6111 23.6667 27.7667C23.1334 27.9222 22.5778 28 22 28C20.3334 28 18.9167 27.4167 17.75 26.25C16.5834 25.0833 16 23.6667 16 22C16 20.3333 16.5834 18.9167 17.75 17.75C18.9167 16.5833 20.3334 16 22 16C23.6667 16 25.0834 16.5833 26.25 17.75C27.4167 18.9167 28 20.3333 28 22C28 22.5778 27.9223 23.1333 27.7667 23.6667C27.6112 24.2 27.3778 24.7111 27.0667 25.2L30.6667 28.8L28.8 30.6667Z" fill="white"/>
</svg>
