<svg width="20" height="20" viewBox="0 0 20 20" fill="none" xmlns="http://www.w3.org/2000/svg">
<g clip-path="url(#clip0_399_4479)">
<path d="M10 5.83337C7.70004 5.83337 5.83337 7.70004 5.83337 10C5.83337 12.3 7.70004 14.1667 10 14.1667C12.3 14.1667 14.1667 12.3 14.1667 10C14.1667 7.70004 12.3 5.83337 10 5.83337ZM1.66671 10.8334H3.33337C3.79171 10.8334 4.16671 10.4584 4.16671 10C4.16671 9.54171 3.79171 9.16671 3.33337 9.16671H1.66671C1.20837 9.16671 0.833374 9.54171 0.833374 10C0.833374 10.4584 1.20837 10.8334 1.66671 10.8334ZM16.6667 10.8334H18.3334C18.7917 10.8334 19.1667 10.4584 19.1667 10C19.1667 9.54171 18.7917 9.16671 18.3334 9.16671H16.6667C16.2084 9.16671 15.8334 9.54171 15.8334 10C15.8334 10.4584 16.2084 10.8334 16.6667 10.8334ZM9.16671 1.66671V3.33337C9.16671 3.79171 9.54171 4.16671 10 4.16671C10.4584 4.16671 10.8334 3.79171 10.8334 3.33337V1.66671C10.8334 1.20837 10.4584 0.833374 10 0.833374C9.54171 0.833374 9.16671 1.20837 9.16671 1.66671ZM9.16671 16.6667V18.3334C9.16671 18.7917 9.54171 19.1667 10 19.1667C10.4584 19.1667 10.8334 18.7917 10.8334 18.3334V16.6667C10.8334 16.2084 10.4584 15.8334 10 15.8334C9.54171 15.8334 9.16671 16.2084 9.16671 16.6667ZM4.99171 3.81671C4.66671 3.49171 4.13337 3.49171 3.81671 3.81671C3.49171 4.14171 3.49171 4.67504 3.81671 4.99171L4.70004 5.87504C5.02504 6.20004 5.55837 6.20004 5.87504 5.87504C6.19171 5.55004 6.20004 5.01671 5.87504 4.70004L4.99171 3.81671ZM15.3 14.125C14.975 13.8 14.4417 13.8 14.125 14.125C13.8 14.45 13.8 14.9834 14.125 15.3L15.0084 16.1834C15.3334 16.5084 15.8667 16.5084 16.1834 16.1834C16.5084 15.8584 16.5084 15.325 16.1834 15.0084L15.3 14.125ZM16.1834 4.99171C16.5084 4.66671 16.5084 4.13337 16.1834 3.81671C15.8584 3.49171 15.325 3.49171 15.0084 3.81671L14.125 4.70004C13.8 5.02504 13.8 5.55837 14.125 5.87504C14.45 6.19171 14.9834 6.20004 15.3 5.87504L16.1834 4.99171ZM5.87504 15.3C6.20004 14.975 6.20004 14.4417 5.87504 14.125C5.55004 13.8 5.01671 13.8 4.70004 14.125L3.81671 15.0084C3.49171 15.3334 3.49171 15.8667 3.81671 16.1834C4.14171 16.5 4.67504 16.5084 4.99171 16.1834L5.87504 15.3Z" fill="#222222"/>
</g>
<defs>
<clipPath id="clip0_399_4479">
<rect width="20" height="20" fill="white"/>
</clipPath>
</defs>
</svg>
