<svg width="469" height="385" viewBox="0 0 469 385" fill="none" xmlns="http://www.w3.org/2000/svg">
<g clip-path="url(#clip0_35_99)">
<path d="M348.969 301.748H203.552C201.231 301.746 199.005 300.821 197.363 299.176C195.722 297.532 194.798 295.303 194.795 292.977V188.251C194.798 185.926 195.721 183.696 197.363 182.052C199.005 180.407 201.231 179.482 203.552 179.48H348.969C351.291 179.482 353.517 180.407 355.158 182.052C356.8 183.696 357.724 185.926 357.726 188.251V292.977C357.723 295.303 356.8 297.532 355.158 299.176C353.517 300.821 351.291 301.746 348.969 301.748Z" fill="#E6E6E6"/>
<path d="M206.24 294.756H346.281C347.407 294.756 348.487 294.308 349.284 293.511C350.08 292.713 350.527 291.631 350.527 290.503V190.725C350.527 189.597 350.08 188.515 349.284 187.717C348.487 186.92 347.407 186.472 346.281 186.472H206.24C205.114 186.472 204.034 186.92 203.238 187.717C202.442 188.515 201.995 189.597 201.995 190.725V290.503C201.995 291.631 202.442 292.713 203.238 293.511C204.034 294.308 205.114 294.756 206.24 294.756Z" fill="white"/>
<path d="M154.174 161.153H8.75685C6.43519 161.15 4.20938 160.225 2.56772 158.581C0.926059 156.936 0.00262254 154.707 0 152.381V47.6555C0.00262114 45.3299 0.926059 43.1004 2.56772 41.456C4.20938 39.8116 6.43519 38.8867 8.75685 38.884H154.174C156.495 38.8867 158.721 39.8116 160.363 41.456C162.004 43.1004 162.928 45.3299 162.931 47.6555V152.381C162.928 154.707 162.004 156.936 160.363 158.581C158.721 160.225 156.495 161.15 154.174 161.153Z" fill="#E6E6E6"/>
<path d="M11.445 154.16H151.486C152.612 154.16 153.692 153.712 154.488 152.915C155.284 152.117 155.732 151.036 155.732 149.908V50.1289C155.732 49.0009 155.284 47.9192 154.488 47.1217C153.692 46.3241 152.612 45.876 151.486 45.876H11.445C10.3189 45.876 9.239 46.3241 8.44277 47.1217C7.64653 47.9192 7.19922 49.0009 7.19922 50.1289V149.908C7.19922 151.036 7.64653 152.117 8.44277 152.915C9.239 153.712 10.3189 154.16 11.445 154.16Z" fill="white"/>
<path d="M329.588 217.475H240.135C239.716 217.475 239.3 217.558 238.913 217.719C238.525 217.879 238.173 218.115 237.876 218.412C237.579 218.709 237.344 219.062 237.184 219.45C237.023 219.839 236.94 220.255 236.94 220.675C236.94 221.095 237.023 221.511 237.184 221.9C237.344 222.288 237.579 222.641 237.876 222.938C238.173 223.235 238.525 223.471 238.913 223.632C239.3 223.792 239.716 223.875 240.135 223.875H329.588C330.436 223.875 331.248 223.538 331.847 222.938C332.446 222.338 332.783 221.524 332.783 220.675C332.783 219.826 332.446 219.012 331.847 218.412C331.248 217.812 330.436 217.475 329.588 217.475Z" fill="#E6E6E6"/>
<path d="M240.135 237.168C239.716 237.168 239.3 237.251 238.913 237.411C238.525 237.572 238.173 237.808 237.876 238.105C237.579 238.402 237.344 238.755 237.184 239.143C237.023 239.531 236.94 239.948 236.94 240.368C236.94 240.788 237.023 241.204 237.184 241.592C237.344 241.981 237.579 242.333 237.876 242.631C238.173 242.928 238.525 243.163 238.913 243.324C239.3 243.485 239.716 243.568 240.135 243.568H329.588C330.436 243.568 331.248 243.231 331.847 242.631C332.446 242.03 332.783 241.216 332.783 240.368C332.783 239.519 332.446 238.705 331.847 238.105C331.248 237.505 330.436 237.168 329.588 237.168H240.135Z" fill="#E6E6E6"/>
<path d="M240.135 256.86C239.288 256.86 238.475 257.198 237.876 257.798C237.277 258.398 236.94 259.212 236.94 260.061C236.94 260.909 237.277 261.723 237.876 262.323C238.475 262.923 239.288 263.261 240.135 263.261H329.588C330.436 263.261 331.248 262.923 331.847 262.323C332.446 261.723 332.783 260.909 332.783 260.061C332.783 259.212 332.446 258.398 331.847 257.798C331.248 257.198 330.436 256.86 329.588 256.86H240.135Z" fill="#E6E6E6"/>
<path d="M223.179 224.86C225.35 224.86 227.111 223.096 227.111 220.921C227.111 218.746 225.35 216.983 223.179 216.983C221.007 216.983 219.247 218.746 219.247 220.921C219.247 223.096 221.007 224.86 223.179 224.86Z" fill="#759DE9"/>
<path d="M223.179 244.553C225.35 244.553 227.111 242.789 227.111 240.614C227.111 238.439 225.35 236.675 223.179 236.675C221.007 236.675 219.247 238.439 219.247 240.614C219.247 242.789 221.007 244.553 223.179 244.553Z" fill="#E6E6E6"/>
<path d="M223.179 264.245C225.35 264.245 227.111 262.482 227.111 260.307C227.111 258.132 225.35 256.368 223.179 256.368C221.007 256.368 219.247 258.132 219.247 260.307C219.247 262.482 221.007 264.245 223.179 264.245Z" fill="#E6E6E6"/>
<path d="M293.955 220.675C293.955 221.095 293.872 221.511 293.712 221.9C293.551 222.288 293.316 222.641 293.019 222.938C292.722 223.235 292.37 223.471 291.983 223.632C291.595 223.792 291.18 223.875 290.76 223.875H240.251C239.461 223.887 238.695 223.612 238.092 223.102C237.488 222.593 237.09 221.881 236.968 221.1C236.909 220.648 236.946 220.189 237.078 219.752C237.21 219.316 237.433 218.913 237.733 218.57C238.033 218.227 238.402 217.951 238.816 217.763C239.231 217.574 239.68 217.476 240.136 217.475H290.76C291.607 217.475 292.42 217.812 293.019 218.412C293.618 219.012 293.955 219.826 293.955 220.675Z" fill="#759DE9"/>
<path d="M276.261 166.028C283.319 166.028 289.04 160.297 289.04 153.227C289.04 146.158 283.319 140.427 276.261 140.427C269.203 140.427 263.482 146.158 263.482 153.227C263.482 160.297 269.203 166.028 276.261 166.028Z" fill="#E6E6E6"/>
<path d="M282.568 154.253C283.133 150.763 280.767 147.476 277.284 146.91C273.801 146.344 270.519 148.713 269.954 152.202C269.388 155.691 271.754 158.979 275.237 159.545C278.72 160.111 282.002 157.742 282.568 154.253Z" fill="white"/>
<path d="M21.7969 96.9776C20.9572 96.9776 20.1519 97.3117 19.5582 97.9065C18.9644 98.5012 18.6309 99.3079 18.6309 100.149C18.6309 100.99 18.9644 101.797 19.5582 102.391C20.1519 102.986 20.9572 103.32 21.7969 103.32H141.133C141.973 103.32 142.778 102.986 143.372 102.391C143.966 101.797 144.3 100.99 144.3 100.149C144.3 99.3079 143.966 98.5012 143.372 97.9065C142.778 97.3117 141.973 96.9776 141.133 96.9776H21.7969Z" fill="#E6E6E6"/>
<path d="M21.7969 116.494C20.9572 116.494 20.1519 116.828 19.5582 117.422C18.9644 118.017 18.6309 118.824 18.6309 119.665C18.6309 120.506 18.9644 121.313 19.5582 121.907C20.1519 122.502 20.9572 122.836 21.7969 122.836H141.133C141.973 122.836 142.778 122.502 143.372 121.907C143.966 121.313 144.3 120.506 144.3 119.665C144.3 118.824 143.966 118.017 143.372 117.422C142.778 116.828 141.973 116.494 141.133 116.494H21.7969Z" fill="#E6E6E6"/>
<path d="M75.1334 136.985C74.2937 136.985 73.4884 137.319 72.8946 137.914C72.3009 138.509 71.9673 139.316 71.9673 140.157C71.9673 140.998 72.3009 141.804 72.8946 142.399C73.4884 142.994 74.2937 143.328 75.1334 143.328H87.7976C88.6373 143.328 89.4426 142.994 90.0364 142.399C90.6301 141.804 90.9637 140.998 90.9637 140.157C90.9637 139.316 90.6301 138.509 90.0364 137.914C89.4426 137.319 88.6373 136.985 87.7976 136.985H75.1334Z" fill="#759DE9"/>
<path d="M64.4952 56.7085C64.2369 56.7088 63.9892 56.8117 63.8066 56.9946C63.624 57.1775 63.5213 57.4256 63.521 57.6843V82.4549C63.5213 82.7137 63.624 82.9617 63.8066 83.1447C63.9892 83.3276 64.2369 83.4305 64.4952 83.4307H98.4353C98.6936 83.4305 98.9412 83.3276 99.1238 83.1447C99.3065 82.9617 99.4092 82.7137 99.4095 82.4549V57.6843C99.4092 57.4256 99.3065 57.1775 99.1238 56.9946C98.9412 56.8116 98.6936 56.7088 98.4353 56.7085L64.4952 56.7085Z" fill="#759DE9"/>
<path d="M81.4654 72.697C84.4245 72.697 86.8234 70.2941 86.8234 67.3301C86.8234 64.366 84.4245 61.9632 81.4654 61.9632C78.5063 61.9632 76.1074 64.366 76.1074 67.3301C76.1074 70.2941 78.5063 72.697 81.4654 72.697Z" fill="white"/>
<path d="M90.2329 80.9913C90.2348 81.8395 90.0344 82.6758 89.6484 83.4308H73.2822C72.8651 82.6125 72.6648 81.7008 72.7003 80.7827C72.7358 79.8647 73.0061 78.9712 73.4851 78.1878C73.9642 77.4043 74.636 76.7572 75.4363 76.3084C76.2366 75.8596 77.1385 75.624 78.0556 75.6244H84.8749C86.2951 75.6236 87.6575 76.1879 88.6623 77.1933C89.6671 78.1986 90.2321 79.5626 90.2329 80.9852V80.9913Z" fill="white"/>
<path d="M81.4654 72.697C84.4245 72.697 86.8234 70.2941 86.8234 67.3301C86.8234 64.366 84.4245 61.9632 81.4654 61.9632C78.5063 61.9632 76.1074 64.366 76.1074 67.3301C76.1074 70.2941 78.5063 72.697 81.4654 72.697Z" fill="white"/>
<path d="M90.2329 80.9913C90.2348 81.8395 90.0344 82.6758 89.6484 83.4308H73.2822C72.8651 82.6125 72.6648 81.7008 72.7003 80.7827C72.7358 79.8647 73.0061 78.9712 73.4851 78.1878C73.9642 77.4043 74.636 76.7572 75.4363 76.3084C76.2366 75.8596 77.1385 75.624 78.0556 75.6244H84.8749C86.2951 75.6236 87.6575 76.1879 88.6623 77.1933C89.6671 78.1986 90.2321 79.5626 90.2329 80.9852V80.9913Z" fill="white"/>
<path d="M81.4651 25.3708C88.4594 25.3708 94.1293 19.6913 94.1293 12.6854C94.1293 5.67944 88.4594 0 81.4651 0C74.4708 0 68.8008 5.67944 68.8008 12.6854C68.8008 19.6913 74.4708 25.3708 81.4651 25.3708Z" fill="#E6E6E6"/>
<path d="M81.4654 19.0281C84.9626 19.0281 87.7976 16.1883 87.7976 12.6854C87.7976 9.1824 84.9626 6.34268 81.4654 6.34268C77.9683 6.34268 75.1333 9.1824 75.1333 12.6854C75.1333 16.1883 77.9683 19.0281 81.4654 19.0281Z" fill="#759DE9"/>
<path d="M397.041 378.097L390.973 378.096L388.088 354.655L397.043 354.656L397.041 378.097Z" fill="#FFB8B8"/>
<path d="M386.341 376H398V385H379C379 383.818 379.19 382.648 379.559 381.556C379.928 380.464 380.468 379.472 381.15 378.636C381.832 377.8 382.641 377.137 383.532 376.685C384.422 376.233 385.377 376 386.341 376Z" fill="#2F2E41"/>
<path d="M429.744 378.097L423.676 378.096L420.792 354.655L429.746 354.656L429.744 378.097Z" fill="#FFB8B8"/>
<path d="M419.341 376H431V385H412C412 383.818 412.19 382.648 412.559 381.556C412.928 380.464 413.468 379.472 414.15 378.636C414.832 377.8 415.641 377.137 416.532 376.685C417.422 376.233 418.377 376 419.341 376Z" fill="#2F2E41"/>
<path d="M411.975 211.453C419.174 211.453 425.01 205.607 425.01 198.396C425.01 191.185 419.174 185.34 411.975 185.34C404.776 185.34 398.94 191.185 398.94 198.396C398.94 205.607 404.776 211.453 411.975 211.453Z" fill="#FFB8B8"/>
<path d="M367.404 283.547C367.495 282.824 367.744 282.13 368.131 281.514C368.519 280.897 369.037 280.373 369.649 279.979C370.261 279.585 370.952 279.329 371.673 279.231C372.394 279.134 373.127 279.195 373.822 279.412L381.107 270.665L387.493 273.802L377.033 286.01C376.592 287.155 375.747 288.098 374.658 288.661C373.57 289.223 372.313 289.366 371.126 289.063C369.939 288.759 368.905 288.03 368.219 287.013C367.533 285.997 367.243 284.764 367.404 283.547Z" fill="#FFB8B8"/>
<path d="M430.1 292.394C429.789 291.735 429.627 291.016 429.624 290.287C429.621 289.558 429.778 288.838 430.083 288.176C430.388 287.515 430.834 286.928 431.39 286.458C431.946 285.988 432.598 285.646 433.301 285.455L434.763 274.159L441.833 273.375L439.544 289.299C439.785 290.502 439.578 291.751 438.96 292.811C438.343 293.871 437.359 294.667 436.195 295.048C435.03 295.43 433.767 295.37 432.644 294.881C431.52 294.392 430.615 293.507 430.1 292.394Z" fill="#FFB8B8"/>
<path d="M422.869 223.058C423.562 222.166 424.477 221.474 425.523 221.05C426.569 220.626 427.708 220.486 428.825 220.644C429.942 220.802 430.998 221.253 431.885 221.95C432.773 222.647 433.461 223.567 433.881 224.615L444.565 251.323C445.657 254.053 446.005 257.024 445.574 259.932L442.094 283.407C442.049 283.71 441.939 283.999 441.772 284.256C441.605 284.512 441.385 284.729 441.126 284.893C440.868 285.056 440.577 285.162 440.274 285.202C439.971 285.243 439.663 285.217 439.371 285.127L434.786 283.717C434.311 283.571 433.902 283.262 433.631 282.846C433.36 282.429 433.243 281.93 433.301 281.436C434.919 267.616 432.78 253.615 427.11 240.911L422.074 229.627C421.599 228.562 421.422 227.389 421.562 226.232C421.702 225.075 422.154 223.977 422.869 223.058Z" fill="#759DE9"/>
<path d="M415.149 211.452C417.111 211.495 419.06 211.121 420.867 210.355C422.674 209.59 424.299 208.45 425.635 207.01C426.971 205.571 427.988 203.864 428.619 202.003C429.25 200.142 429.48 198.168 429.295 196.211C429.11 194.254 428.514 192.359 427.545 190.649C426.577 188.94 425.258 187.455 423.676 186.293C422.093 185.13 420.284 184.316 418.365 183.904C416.446 183.492 414.462 183.491 412.543 183.902C409.677 182.159 406.344 180.985 403.004 181.284C399.663 181.582 396.36 183.569 395.111 186.686C393.862 189.803 395.204 193.913 398.31 195.18C400.301 195.992 402.549 195.598 404.674 195.27C406.799 194.943 409.117 194.729 410.967 195.827C412.816 196.926 413.647 199.87 411.991 201.244C411.113 202 410.486 203.007 410.194 204.13C409.901 205.252 409.957 206.437 410.354 207.527C411.187 209.684 413.459 211.416 415.149 211.452Z" fill="#2F2E41"/>
<path d="M431.321 283.031L433.634 370.926C433.641 371.219 433.588 371.51 433.478 371.782C433.368 372.054 433.203 372.299 432.994 372.504C432.785 372.709 432.535 372.868 432.261 372.971C431.988 373.075 431.696 373.121 431.403 373.106L423.786 372.716C423.3 372.692 422.838 372.5 422.476 372.174C422.114 371.849 421.874 371.408 421.798 370.927L412.738 313.838C412.699 313.594 412.577 313.371 412.391 313.207C412.206 313.044 411.97 312.95 411.723 312.943C411.476 312.935 411.234 313.014 411.039 313.165C410.844 313.317 410.708 313.532 410.654 313.773L398.39 368.739C398.325 369.033 398.198 369.31 398.017 369.551C397.837 369.791 397.608 369.991 397.345 370.137C397.082 370.282 396.791 370.37 396.491 370.395C396.192 370.419 395.89 370.38 395.607 370.279L388.048 369.817C387.611 369.661 387.236 369.366 386.982 368.977C386.728 368.587 386.609 368.126 386.642 367.662L393.241 282.199L431.321 283.031Z" fill="#2F2E41"/>
<path d="M435.032 241.284C436.308 227.964 426.531 215.917 413.206 214.969C407.465 214.561 398.552 214.415 395.614 221.953C386.763 244.659 402.257 244.108 396.918 263.781C391.58 283.454 386.865 284.581 394.19 286.002C401.515 287.422 434.454 295.808 433.101 281.962C432.27 273.45 433.76 254.57 435.032 241.284Z" fill="#759DE9"/>
<path d="M397.18 219.643C398.232 219.235 399.373 219.112 400.488 219.287C401.602 219.462 402.651 219.928 403.528 220.639C404.405 221.35 405.08 222.279 405.484 223.335C405.887 224.39 406.006 225.533 405.828 226.649L401.668 252.692C400.956 257.146 399.076 261.33 396.22 264.816L382.708 281.309C382.514 281.546 382.271 281.738 381.996 281.872C381.722 282.006 381.421 282.079 381.115 282.086C380.81 282.093 380.506 282.034 380.226 281.912C379.945 281.791 379.694 281.611 379.489 281.383L376.28 277.813C375.947 277.443 375.755 276.968 375.736 276.471C375.717 275.974 375.873 275.486 376.176 275.092L377.121 273.863C384.981 263.645 389.941 251.49 391.474 238.682L393.128 224.869C393.267 223.711 393.717 222.614 394.431 221.693C395.145 220.773 396.095 220.064 397.18 219.643Z" fill="#759DE9"/>
</g>
<defs>
<clipPath id="clip0_35_99">
<rect width="469" height="385" fill="white"/>
</clipPath>
</defs>
</svg>
