<svg width="156" height="156" viewBox="0 0 156 156" fill="none" xmlns="http://www.w3.org/2000/svg">
<g clip-path="url(#clip0_150_27)">
<mask id="mask0_150_27" style="mask-type:luminance" maskUnits="userSpaceOnUse" x="7" y="0" width="142" height="156">
<path d="M148.375 0H7V156H148.375V0Z" fill="white"/>
</mask>
<g mask="url(#mask0_150_27)">
<path d="M89.5352 89.8541L81.8005 110.563C81.5724 111.137 81.5724 111.775 81.8005 112.349L95.0829 147.991L110.454 139.312L92.0156 89.8541C91.591 88.7055 89.9593 88.7055 89.5352 89.8541Z" fill="white"/>
<path d="M105.003 55.01C104.578 53.8614 102.947 53.8614 102.523 55.01L94.7879 75.7185C94.5593 76.2932 94.5593 76.9314 94.7879 77.5057L116.555 135.866L131.927 127.187L105.003 55.01Z" fill="white"/>
<path d="M77.6875 9.66825C78.079 9.66825 78.4383 9.76394 78.7971 9.95543L137.41 43.0444C138.095 43.4273 138.519 44.1293 138.519 44.8951V111.073C138.519 111.839 138.095 112.541 137.41 112.924L78.7971 146.045C78.4709 146.236 78.079 146.332 77.6875 146.332C77.296 146.332 76.9367 146.236 76.5779 146.045L17.998 112.956C17.3127 112.573 16.8884 111.871 16.8884 111.105V44.8951C16.8884 44.1293 17.3127 43.4273 17.998 43.0444L76.6106 9.95543C76.9368 9.76394 77.3287 9.66825 77.6875 9.66825ZM77.6875 0C75.599 0 73.5101 0.542441 71.6498 1.59542L13.0375 34.6844C9.31709 36.7904 7 40.6832 7 44.8951V111.073C7 115.285 9.31709 119.21 13.0375 121.316L71.6498 154.404C73.5101 155.457 75.599 156 77.6875 156C79.776 156 81.8649 155.457 83.7252 154.404L142.337 121.316C146.091 119.21 148.375 115.317 148.375 111.073V44.8951C148.375 40.6832 146.058 36.7584 142.337 34.6525L83.7579 1.59542C81.8649 0.542441 79.776 0 77.6875 0Z" fill="white"/>
<path d="M38.9541 135.93L44.3389 121.507L55.1737 130.314L45.0568 139.376L38.9541 135.93Z" fill="white"/>
<path d="M72.7579 40.1724H57.9091C56.7996 40.1724 55.7875 40.8424 55.4287 41.8635L23.5769 127.25L38.948 135.929L74.0308 41.8954C74.3242 41.0658 73.7041 40.1724 72.7579 40.1724Z" fill="white"/>
<path d="M98.765 40.1724H83.9163C82.8067 40.1724 81.7947 40.8424 81.4359 41.8635L45.0479 139.375L60.4188 148.055L100.005 41.9273C100.331 41.0658 99.6791 40.1724 98.765 40.1724Z" fill="white"/>
</g>
</g>
<defs>
<clipPath id="clip0_150_27">
<rect width="141.375" height="156" fill="white" transform="translate(7)"/>
</clipPath>
</defs>
</svg>
