<svg width="40" height="40" viewBox="0 0 40 40" fill="none" xmlns="http://www.w3.org/2000/svg">
<path d="M13.8613 22.1805L21.5419 29.8611C21.977 30.2979 22.1993 30.8169 22.2085 31.4179C22.2178 32.0189 22.0048 32.541 21.5696 32.9843C21.1345 33.4206 20.613 33.6342 20.0052 33.625C19.3975 33.6157 18.8727 33.3935 18.4308 32.9583L7.04187 21.5694C6.83059 21.3533 6.66434 21.1062 6.54312 20.8279C6.42192 20.5496 6.36133 20.2726 6.36133 19.9969C6.36133 19.7212 6.42192 19.4449 6.54312 19.168C6.66434 18.8912 6.83059 18.6453 7.04187 18.4305L18.4725 6.99996C18.9354 6.56476 19.4585 6.34717 20.0419 6.34717C20.6252 6.34717 21.1345 6.56476 21.5696 6.99996C22.0048 7.45365 22.2224 7.97618 22.2224 8.56754C22.2224 9.1589 22.0048 9.6734 21.5696 10.111L13.8613 17.8194H32.3197C32.9284 17.8194 33.4487 18.0301 33.8804 18.4514C34.3121 18.8727 34.528 19.3888 34.528 20C34.528 20.6111 34.3121 21.1273 33.8804 21.5485C33.4487 21.9698 32.9284 22.1805 32.3197 22.1805H13.8613Z" fill="#222222"/>
</svg>
