<svg xmlns="http://www.w3.org/2000/svg" height="40" viewBox="0 -960 960 960" width="40">
  <path d="M332.666-427.667 517-243.333q15.666 15.727 16 37.364.333 21.636-15.334 37.592Q502-152.667 480.121-153q-21.878-.333-37.787-16L169-442.334q-7.606-7.777-11.97-17.796-4.363-10.018-4.363-19.944 0-9.926 4.363-19.893 4.364-9.966 11.97-17.699L443.334-792Q460-807.667 481-807.667q21 0 36.666 15.667 15.667 16.333 15.667 37.622t-15.667 37.044l-185 185.001h443.001q21.916 0 37.458 15.167Q828.667-502 828.667-480q0 22-15.542 37.166-15.542 15.167-37.458 15.167H332.666" fill="#ffffff"/>
</svg>
