<svg width="24" height="24" viewBox="0 0 24 24" fill="none" xmlns="http://www.w3.org/2000/svg">
<path d="M6.00004 14H14V12H6.00004V14ZM6.00004 11H18V8.99998H6.00004V11ZM6.00004 7.99998H18V5.99998H6.00004V7.99998ZM1.51954 22.4804V4.16956C1.51954 3.43114 1.77664 2.80487 2.29074 2.29073C2.80494 1.7766 3.43114 1.51953 4.16964 1.51953H19.8304C20.5689 1.51953 21.1951 1.7766 21.7093 2.29073C22.2234 2.80487 22.4805 3.43114 22.4805 4.16956V15.8304C22.4805 16.5688 22.2234 17.1951 21.7093 17.7092C21.1951 18.2234 20.5689 18.4804 19.8304 18.4804H5.51954L1.51954 22.4804ZM4.66954 15.8304H19.8304V4.16956H4.16964V16.3195L4.66954 15.8304Z" fill="white"/>
</svg>
