<svg width="24" height="24" viewBox="0 0 24 24" fill="none" xmlns="http://www.w3.org/2000/svg">
<path d="M18 14H10V12H18V14ZM18 11H6.00002V8.99998H18V11ZM18 7.99998H6.00002V5.99998H18V7.99998ZM22.4805 22.4804V4.16956C22.4805 3.43114 22.2234 2.80487 21.7093 2.29073C21.1951 1.7766 20.5689 1.51953 19.8304 1.51953H4.16959C3.43118 1.51953 2.8049 1.7766 2.29077 2.29073C1.77663 2.80487 1.51957 3.43114 1.51957 4.16956V15.8304C1.51957 16.5688 1.77663 17.1951 2.29077 17.7092C2.8049 18.2234 3.43118 18.4804 4.16959 18.4804H18.4805L22.4805 22.4804ZM19.3305 15.8304H4.16959V4.16956H19.8304V16.3195L19.3305 15.8304Z" fill="white"/>
</svg>
