<svg width="24" height="22" viewBox="0 0 24 22" fill="none" xmlns="http://www.w3.org/2000/svg">
<g clip-path="url(#clip0_49_3858)">
<path d="M3.4562 13.3501H2.3042V14.5501H3.4562V13.3501Z" fill="white"/>
<path d="M4.60805 10.95H3.45605V12.1499H4.60805V10.95Z" fill="black"/>
<path d="M3.4562 10.95H2.3042V12.1499H3.4562V10.95Z" fill="black"/>
<path d="M5.75991 12.1499H4.60791V13.3499H5.75991V12.1499Z" fill="black"/>
<path d="M6.91177 12.1499H5.75977V13.3499H6.91177V12.1499Z" fill="black"/>
<path d="M8.06411 10.95H6.91211V12.1499H8.06411V10.95Z" fill="black"/>
<path d="M9.21597 10.95H8.06396V12.1499H9.21597V10.95Z" fill="black"/>
<path d="M10.3678 10.95H9.21582V12.1499H10.3678V10.95Z" fill="black"/>
<path d="M11.5202 12.1499H10.3682V13.3499H11.5202V12.1499Z" fill="black"/>
<path d="M11.5202 13.3501H10.3682V14.5501H11.5202V13.3501Z" fill="black"/>
<path d="M2.30385 10.95H1.15186V12.1499H2.30385V10.95Z" fill="black"/>
<path d="M1.152 12.1499H0V13.3499H1.152V12.1499Z" fill="black"/>
<path d="M1.152 13.3501H0V14.5501H1.152V13.3501Z" fill="black"/>
<path d="M1.152 14.55H0V15.75H1.152V14.55Z" fill="black"/>
<path d="M11.5202 14.55H10.3682V15.75H11.5202V14.55Z" fill="black"/>
<path d="M2.30385 15.75H1.15186V16.95H2.30385V15.75Z" fill="black"/>
<path d="M3.4562 16.95H2.3042V18.15H3.4562V16.95Z" fill="black"/>
<path d="M4.60805 18.1499H3.45605V19.3499H4.60805V18.1499Z" fill="black"/>
<path d="M5.75991 19.3501H4.60791V20.5501H5.75991V19.3501Z" fill="black"/>
<path d="M6.91177 19.3501H5.75977V20.5501H6.91177V19.3501Z" fill="black"/>
<path d="M8.06411 18.1499H6.91211V19.3499H8.06411V18.1499Z" fill="black"/>
<path d="M9.21597 16.95H8.06396V18.15H9.21597V16.95Z" fill="black"/>
<path d="M10.3678 15.75H9.21582V16.95H10.3678V15.75Z" fill="black"/>
<path d="M2.30385 12.1499H1.15186V13.3499H2.30385V12.1499Z" fill="#9D0000"/>
<path d="M3.4562 12.1499H2.3042V13.3499H3.4562V12.1499Z" fill="#FF0000"/>
<path d="M4.60805 12.1499H3.45605V13.3499H4.60805V12.1499Z" fill="#FF0000"/>
<path d="M2.30385 13.3501H1.15186V14.5501H2.30385V13.3501Z" fill="#9D0000"/>
<path d="M3.4562 13.3501H2.3042V14.5501H3.4562V13.3501Z" fill="#FF0000"/>
<path d="M4.60805 13.3501H3.45605V14.5501H4.60805V13.3501Z" fill="#FF0000"/>
<path d="M2.30385 14.55H1.15186V15.75H2.30385V14.55Z" fill="#9D0000"/>
<path d="M3.4562 14.55H2.3042V15.75H3.4562V14.55Z" fill="#FF0000"/>
<path d="M4.60805 14.55H3.45605V15.75H4.60805V14.55Z" fill="#FF0000"/>
<path d="M3.4562 15.75H2.3042V16.95H3.4562V15.75Z" fill="#9D0000"/>
<path d="M4.60805 15.75H3.45605V16.95H4.60805V15.75Z" fill="#FF0000"/>
<path d="M4.60805 16.95H3.45605V18.15H4.60805V16.95Z" fill="#9D0000"/>
<path d="M5.75991 16.95H4.60791V18.15H5.75991V16.95Z" fill="#FF0000"/>
<path d="M5.75991 18.1499H4.60791V19.3499H5.75991V18.1499Z" fill="#9D0000"/>
<path d="M6.91177 18.1499H5.75977V19.3499H6.91177V18.1499Z" fill="#FF0000"/>
<path d="M6.91177 16.95H5.75977V18.15H6.91177V16.95Z" fill="#FF0000"/>
<path d="M5.75991 15.75H4.60791V16.95H5.75991V15.75Z" fill="#FF0000"/>
<path d="M6.91177 15.75H5.75977V16.95H6.91177V15.75Z" fill="#FF0000"/>
<path d="M6.91177 14.55H5.75977V15.75H6.91177V14.55Z" fill="#FF0000"/>
<path d="M5.75991 14.55H4.60791V15.75H5.75991V14.55Z" fill="#FF0000"/>
<path d="M5.75991 13.3501H4.60791V14.5501H5.75991V13.3501Z" fill="#FF0000"/>
<path d="M6.91177 13.3501H5.75977V14.5501H6.91177V13.3501Z" fill="#FF0000"/>
<path d="M8.06411 14.55H6.91211V15.75H8.06411V14.55Z" fill="#FF0000"/>
<path d="M9.21597 15.75H8.06396V16.95H9.21597V15.75Z" fill="#FF0000"/>
<path d="M8.06411 15.75H6.91211V16.95H8.06411V15.75Z" fill="#FF0000"/>
<path d="M8.06411 16.95H6.91211V18.15H8.06411V16.95Z" fill="#FF0000"/>
<path d="M9.21597 14.55H8.06396V15.75H9.21597V14.55Z" fill="#FF0000"/>
<path d="M10.3678 14.55H9.21582V15.75H10.3678V14.55Z" fill="#FF5757"/>
<path d="M8.06411 13.3501H6.91211V14.5501H8.06411V13.3501Z" fill="#FF0000"/>
<path d="M9.21597 13.3501H8.06396V14.5501H9.21597V13.3501Z" fill="#FF0000"/>
<path d="M10.3678 13.3501H9.21582V14.5501H10.3678V13.3501Z" fill="#FF5757"/>
<path d="M10.3678 12.1499H9.21582V13.3499H10.3678V12.1499Z" fill="#FF5757"/>
<path d="M9.21597 12.1499H8.06396V13.3499H9.21597V12.1499Z" fill="#FF5757"/>
<path d="M8.06411 12.1499H6.91211V13.3499H8.06411V12.1499Z" fill="#FF5757"/>
</g>
<g clip-path="url(#clip1_49_3858)">
<path d="M15.9362 13.3501H14.7842V14.5501H15.9362V13.3501Z" fill="white"/>
<path d="M17.088 10.95H15.936V12.1499H17.088V10.95Z" fill="black"/>
<path d="M15.9362 10.95H14.7842V12.1499H15.9362V10.95Z" fill="black"/>
<path d="M18.2399 12.1499H17.0879V13.3499H18.2399V12.1499Z" fill="black"/>
<path d="M19.3917 12.1499H18.2397V13.3499H19.3917V12.1499Z" fill="black"/>
<path d="M20.5441 10.95H19.3921V12.1499H20.5441V10.95Z" fill="black"/>
<path d="M21.6959 10.95H20.5439V12.1499H21.6959V10.95Z" fill="black"/>
<path d="M22.8478 10.95H21.6958V12.1499H22.8478V10.95Z" fill="black"/>
<path d="M24.0001 12.1499H22.8481V13.3499H24.0001V12.1499Z" fill="black"/>
<path d="M24.0001 13.3501H22.8481V14.5501H24.0001V13.3501Z" fill="black"/>
<path d="M14.7838 10.95H13.6318V12.1499H14.7838V10.95Z" fill="black"/>
<path d="M13.632 12.1499H12.48V13.3499H13.632V12.1499Z" fill="black"/>
<path d="M13.632 13.3501H12.48V14.5501H13.632V13.3501Z" fill="black"/>
<path d="M13.632 14.55H12.48V15.75H13.632V14.55Z" fill="black"/>
<path d="M24.0001 14.55H22.8481V15.75H24.0001V14.55Z" fill="black"/>
<path d="M14.7838 15.75H13.6318V16.95H14.7838V15.75Z" fill="black"/>
<path d="M15.9362 16.95H14.7842V18.15H15.9362V16.95Z" fill="black"/>
<path d="M17.088 18.1499H15.936V19.3499H17.088V18.1499Z" fill="black"/>
<path d="M18.2399 19.3501H17.0879V20.5501H18.2399V19.3501Z" fill="black"/>
<path d="M19.3917 19.3501H18.2397V20.5501H19.3917V19.3501Z" fill="black"/>
<path d="M20.5441 18.1499H19.3921V19.3499H20.5441V18.1499Z" fill="black"/>
<path d="M21.6959 16.95H20.5439V18.15H21.6959V16.95Z" fill="black"/>
<path d="M22.8478 15.75H21.6958V16.95H22.8478V15.75Z" fill="black"/>
<path d="M14.7838 12.1499H13.6318V13.3499H14.7838V12.1499Z" fill="#619D00"/>
<path d="M15.9362 12.1499H14.7842V13.3499H15.9362V12.1499Z" fill="#BDFF00"/>
<path d="M17.088 12.1499H15.936V13.3499H17.088V12.1499Z" fill="#BDFF00"/>
<path d="M14.7838 13.3501H13.6318V14.5501H14.7838V13.3501Z" fill="#619D00"/>
<path d="M15.9362 13.3501H14.7842V14.5501H15.9362V13.3501Z" fill="#BDFF00"/>
<path d="M17.088 13.3501H15.936V14.5501H17.088V13.3501Z" fill="#BDFF00"/>
<path d="M14.7838 14.55H13.6318V15.75H14.7838V14.55Z" fill="#619D00"/>
<path d="M15.9362 14.55H14.7842V15.75H15.9362V14.55Z" fill="#BDFF00"/>
<path d="M17.088 14.55H15.936V15.75H17.088V14.55Z" fill="#BDFF00"/>
<path d="M15.9362 15.75H14.7842V16.95H15.9362V15.75Z" fill="#619D00"/>
<path d="M17.088 15.75H15.936V16.95H17.088V15.75Z" fill="#BDFF00"/>
<path d="M17.088 16.95H15.936V18.15H17.088V16.95Z" fill="#619D00"/>
<path d="M18.2399 16.95H17.0879V18.15H18.2399V16.95Z" fill="#BDFF00"/>
<path d="M18.2399 18.1499H17.0879V19.3499H18.2399V18.1499Z" fill="#619D00"/>
<path d="M19.3917 18.1499H18.2397V19.3499H19.3917V18.1499Z" fill="#BDFF00"/>
<path d="M19.3917 16.95H18.2397V18.15H19.3917V16.95Z" fill="#BDFF00"/>
<path d="M18.2399 15.75H17.0879V16.95H18.2399V15.75Z" fill="#BDFF00"/>
<path d="M19.3917 15.75H18.2397V16.95H19.3917V15.75Z" fill="#BDFF00"/>
<path d="M19.3917 14.55H18.2397V15.75H19.3917V14.55Z" fill="#BDFF00"/>
<path d="M18.2399 14.55H17.0879V15.75H18.2399V14.55Z" fill="#BDFF00"/>
<path d="M18.2399 13.3501H17.0879V14.5501H18.2399V13.3501Z" fill="#BDFF00"/>
<path d="M19.3917 13.3501H18.2397V14.5501H19.3917V13.3501Z" fill="#BDFF00"/>
<path d="M20.5441 14.55H19.3921V15.75H20.5441V14.55Z" fill="#BDFF00"/>
<path d="M21.6959 15.75H20.5439V16.95H21.6959V15.75Z" fill="#BDFF00"/>
<path d="M20.5441 15.75H19.3921V16.95H20.5441V15.75Z" fill="#BDFF00"/>
<path d="M20.5441 16.95H19.3921V18.15H20.5441V16.95Z" fill="#BDFF00"/>
<path d="M21.6959 14.55H20.5439V15.75H21.6959V14.55Z" fill="#BDFF00"/>
<path d="M22.8478 14.55H21.6958V15.75H22.8478V14.55Z" fill="#DDFF57"/>
<path d="M20.5441 13.3501H19.3921V14.5501H20.5441V13.3501Z" fill="#BDFF00"/>
<path d="M21.6959 13.3501H20.5439V14.5501H21.6959V13.3501Z" fill="#BDFF00"/>
<path d="M22.8478 13.3501H21.6958V14.5501H22.8478V13.3501Z" fill="#DDFF57"/>
<path d="M22.8478 12.1499H21.6958V13.3499H22.8478V12.1499Z" fill="#DDFF57"/>
<path d="M21.6959 12.1499H20.5439V13.3499H21.6959V12.1499Z" fill="#DDFF57"/>
<path d="M20.5441 12.1499H19.3921V13.3499H20.5441V12.1499Z" fill="#DDFF57"/>
</g>
<g clip-path="url(#clip2_49_3858)">
<path d="M9.69643 3.8501H8.54443V5.0501H9.69643V3.8501Z" fill="white"/>
<path d="M10.8483 1.44995H9.69629V2.64995H10.8483V1.44995Z" fill="black"/>
<path d="M9.69643 1.44995H8.54443V2.64995H9.69643V1.44995Z" fill="black"/>
<path d="M12.0001 2.6499H10.8481V3.8499H12.0001V2.6499Z" fill="black"/>
<path d="M13.152 2.6499H12V3.8499H13.152V2.6499Z" fill="black"/>
<path d="M14.3043 1.44995H13.1523V2.64995H14.3043V1.44995Z" fill="black"/>
<path d="M15.4562 1.44995H14.3042V2.64995H15.4562V1.44995Z" fill="black"/>
<path d="M16.6081 1.44995H15.4561V2.64995H16.6081V1.44995Z" fill="black"/>
<path d="M17.7604 2.6499H16.6084V3.8499H17.7604V2.6499Z" fill="black"/>
<path d="M17.7604 3.8501H16.6084V5.0501H17.7604V3.8501Z" fill="black"/>
<path d="M8.54409 1.44995H7.39209V2.64995H8.54409V1.44995Z" fill="black"/>
<path d="M7.39223 2.6499H6.24023V3.8499H7.39223V2.6499Z" fill="black"/>
<path d="M7.39223 3.8501H6.24023V5.0501H7.39223V3.8501Z" fill="black"/>
<path d="M7.39223 5.05005H6.24023V6.25005H7.39223V5.05005Z" fill="black"/>
<path d="M17.7604 5.05005H16.6084V6.25005H17.7604V5.05005Z" fill="black"/>
<path d="M8.54409 6.25H7.39209V7.45H8.54409V6.25Z" fill="black"/>
<path d="M9.69643 7.44995H8.54443V8.64995H9.69643V7.44995Z" fill="black"/>
<path d="M10.8483 8.6499H9.69629V9.84992H10.8483V8.6499Z" fill="black"/>
<path d="M12.0001 9.8501H10.8481V11.0501H12.0001V9.8501Z" fill="black"/>
<path d="M13.152 9.8501H12V11.0501H13.152V9.8501Z" fill="black"/>
<path d="M14.3043 8.6499H13.1523V9.84992H14.3043V8.6499Z" fill="black"/>
<path d="M15.4562 7.44995H14.3042V8.64995H15.4562V7.44995Z" fill="black"/>
<path d="M16.6081 6.25H15.4561V7.45H16.6081V6.25Z" fill="black"/>
<path d="M8.54409 2.6499H7.39209V3.8499H8.54409V2.6499Z" fill="#16009D"/>
<path d="M9.69643 2.6499H8.54443V3.8499H9.69643V2.6499Z" fill="#3300FF"/>
<path d="M10.8483 2.6499H9.69629V3.8499H10.8483V2.6499Z" fill="#3300FF"/>
<path d="M8.54409 3.8501H7.39209V5.0501H8.54409V3.8501Z" fill="#16009D"/>
<path d="M9.69643 3.8501H8.54443V5.0501H9.69643V3.8501Z" fill="#3300FF"/>
<path d="M10.8483 3.8501H9.69629V5.0501H10.8483V3.8501Z" fill="#3300FF"/>
<path d="M8.54409 5.05005H7.39209V6.25005H8.54409V5.05005Z" fill="#16009D"/>
<path d="M9.69643 5.05005H8.54443V6.25005H9.69643V5.05005Z" fill="#3300FF"/>
<path d="M10.8483 5.05005H9.69629V6.25005H10.8483V5.05005Z" fill="#3300FF"/>
<path d="M9.69643 6.25H8.54443V7.45H9.69643V6.25Z" fill="#16009D"/>
<path d="M10.8483 6.25H9.69629V7.45H10.8483V6.25Z" fill="#3300FF"/>
<path d="M10.8483 7.44995H9.69629V8.64995H10.8483V7.44995Z" fill="#16009D"/>
<path d="M12.0001 7.44995H10.8481V8.64995H12.0001V7.44995Z" fill="#3300FF"/>
<path d="M12.0001 8.6499H10.8481V9.84992H12.0001V8.6499Z" fill="#16009D"/>
<path d="M13.152 8.6499H12V9.84992H13.152V8.6499Z" fill="#3300FF"/>
<path d="M13.152 7.44995H12V8.64995H13.152V7.44995Z" fill="#3300FF"/>
<path d="M12.0001 6.25H10.8481V7.45H12.0001V6.25Z" fill="#3300FF"/>
<path d="M13.152 6.25H12V7.45H13.152V6.25Z" fill="#3300FF"/>
<path d="M13.152 5.05005H12V6.25005H13.152V5.05005Z" fill="#3300FF"/>
<path d="M12.0001 5.05005H10.8481V6.25005H12.0001V5.05005Z" fill="#3300FF"/>
<path d="M12.0001 3.8501H10.8481V5.0501H12.0001V3.8501Z" fill="#3300FF"/>
<path d="M13.152 3.8501H12V5.0501H13.152V3.8501Z" fill="#3300FF"/>
<path d="M14.3043 5.05005H13.1523V6.25005H14.3043V5.05005Z" fill="#3300FF"/>
<path d="M15.4562 6.25H14.3042V7.45H15.4562V6.25Z" fill="#3300FF"/>
<path d="M14.3043 6.25H13.1523V7.45H14.3043V6.25Z" fill="#3300FF"/>
<path d="M14.3043 7.44995H13.1523V8.64995H14.3043V7.44995Z" fill="#3300FF"/>
<path d="M15.4562 5.05005H14.3042V6.25005H15.4562V5.05005Z" fill="#3300FF"/>
<path d="M16.6081 5.05005H15.4561V6.25005H16.6081V5.05005Z" fill="#7957FF"/>
<path d="M14.3043 3.8501H13.1523V5.0501H14.3043V3.8501Z" fill="#3300FF"/>
<path d="M15.4562 3.8501H14.3042V5.0501H15.4562V3.8501Z" fill="#3300FF"/>
<path d="M16.6081 3.8501H15.4561V5.0501H16.6081V3.8501Z" fill="#7957FF"/>
<path d="M16.6081 2.6499H15.4561V3.8499H16.6081V2.6499Z" fill="#7957FF"/>
<path d="M15.4562 2.6499H14.3042V3.8499H15.4562V2.6499Z" fill="#7957FF"/>
<path d="M14.3043 2.6499H13.1523V3.8499H14.3043V2.6499Z" fill="#7957FF"/>
</g>
<defs>
<clipPath id="clip0_49_3858">
<rect width="11.52" height="12" fill="white" transform="translate(0 9.75)"/>
</clipPath>
<clipPath id="clip1_49_3858">
<rect width="11.52" height="12" fill="white" transform="translate(12.48 9.75)"/>
</clipPath>
<clipPath id="clip2_49_3858">
<rect width="11.52" height="12" fill="white" transform="translate(6.24023 0.25)"/>
</clipPath>
</defs>
</svg>
