<svg width="24" height="24" viewBox="0 0 24 24" fill="none" xmlns="http://www.w3.org/2000/svg">
<path d="M9.5 17C10.245 16.27 11 15.395 11 14.25C11 13.5207 10.7103 12.8212 10.1945 12.3055C9.67882 11.7897 8.97935 11.5 8.25 11.5C7.37 11.5 6.75 11.75 6 12.5C5.25 11.75 4.63 11.5 3.75 11.5C3.02065 11.5 2.32118 11.7897 1.80546 12.3055C1.28973 12.8212 1 13.5207 1 14.25C1 15.4 1.75 16.275 2.5 17L6 20.5L9.5 17Z" fill="#FF0000" stroke="black" stroke-linecap="round" stroke-linejoin="round"/>
<path d="M21.5 17C22.245 16.27 23 15.395 23 14.25C23 13.5207 22.7103 12.8212 22.1945 12.3055C21.6788 11.7897 20.9793 11.5 20.25 11.5C19.37 11.5 18.75 11.75 18 12.5C17.25 11.75 16.63 11.5 15.75 11.5C15.0207 11.5 14.3212 11.7897 13.8055 12.3055C13.2897 12.8212 13 13.5207 13 14.25C13 15.4 13.75 16.275 14.5 17L18 20.5L21.5 17Z" fill="#BDFF00" stroke="black" stroke-linecap="round" stroke-linejoin="round"/>
<path d="M15.5 8.5C16.245 7.77 17 6.895 17 5.75C17 5.02065 16.7103 4.32118 16.1945 3.80546C15.6788 3.28973 14.9793 3 14.25 3C13.37 3 12.75 3.25 12 4C11.25 3.25 10.63 3 9.75 3C9.02065 3 8.32118 3.28973 7.80546 3.80546C7.28973 4.32118 7 5.02065 7 5.75C7 6.9 7.75 7.775 8.5 8.5L12 12L15.5 8.5Z" fill="#3300FF" stroke="black" stroke-linecap="round" stroke-linejoin="round"/>
</svg>
