<svg width="24" height="24" viewBox="0 0 24 24" fill="none" xmlns="http://www.w3.org/2000/svg">
<path d="M12 2C6.48609 2 2 6.4859 2 12C2 17.5141 6.48609 22 12 22C17.5139 22 22 17.5141 22 12C22 6.4859 17.5139 2 12 2ZM17.2185 8.26004H14.571L9.96445 17.516C9.85617 17.7334 9.63363 17.8655 9.3907 17.8655C9.14777 17.8655 8.92527 17.7361 8.81695 17.5186L6.38477 12.6523H5.47684C5.12223 12.6523 4.83512 12.3543 4.83512 12C4.83512 11.6456 5.12223 11.3477 5.47684 11.3477H6.78148C7.02441 11.3477 7.24691 11.485 7.35523 11.7025L9.39078 15.7837L13.6007 7.31023C13.709 7.09281 13.9315 6.95543 14.1745 6.95543H17.2186C17.5732 6.95543 17.8603 7.25336 17.8603 7.60773C17.8603 7.96211 17.5731 8.26004 17.2185 8.26004Z" fill="white"/>
</svg>
