<svg width="59" height="24" viewBox="0 0 59 24" fill="none" xmlns="http://www.w3.org/2000/svg">
<g clip-path="url(#clip0_105_4473)">
<path d="M58.4 5.26928C58.4011 4.19372 58.0688 3.1436 57.4476 2.26031C56.8267 1.37702 55.9467 0.703001 54.9263 0.328829C53.9059 -0.045341 52.794 -0.101683 51.7402 0.167462C50.6867 0.436606 49.7416 1.0183 49.0325 1.83423C47.4353 1.26165 45.7463 0.980543 44.0474 1.00468C37.65 1.00468 33.585 4.14996 29.9505 7.86155C24.7879 3.92662 19.1195 0.151235 11.81 0.151235C1.12161 0.151235 -2.50212 10.6293 1.71891 16.8056C1.48191 17.9569 1.64116 19.1534 2.17145 20.2049C2.70173 21.2565 3.57252 22.1025 4.64537 22.6087C5.71819 23.1148 6.9315 23.2519 8.09227 22.9982C9.25301 22.7444 10.2947 22.1144 11.0514 21.2083H11.1616C17.8093 21.2083 22.0626 18.0364 25.7698 14.2956C30.9593 19.0441 35.9094 24 42.9875 24C51.6743 24 56.2612 16.428 55.4273 9.97258C56.3167 9.53987 57.0664 8.87038 57.5916 8.03942C58.1167 7.20846 58.3968 6.24905 58.4 5.26928ZM11.9338 19.6876C12.3998 18.4469 12.3758 17.0784 11.8668 15.8544C11.3577 14.6304 10.401 13.6408 9.18688 13.0826C7.97279 12.5244 6.5904 12.4385 5.31516 12.8422C4.03992 13.2458 2.96532 14.1094 2.3053 15.2608C-0.062129 11.1823 1.98516 5.76378 9.03096 5.76378C15.536 5.76378 20.2844 9.36905 24.7448 13.3731C21.3659 16.7231 17.5995 19.4935 11.9338 19.6876ZM46.4902 16.63C40.9886 16.63 36.2403 12.7191 31.0508 8.70708C34.4513 5.26668 38.1692 2.45634 43.7407 2.45634C45.2513 2.43815 46.7533 2.68016 48.1797 3.17152C47.7971 4.02797 47.6532 4.97007 47.7632 5.89996C47.8733 6.82988 48.2332 7.71372 48.8057 8.45976C49.3779 9.20583 50.142 9.78687 51.0182 10.1426C51.8947 10.4984 52.8511 10.616 53.7889 10.483C53.727 13.6868 51.2816 16.63 46.4902 16.63Z" fill="white"/>
</g>
<defs>
<clipPath id="clip0_105_4473">
<rect width="59" height="24" fill="white"/>
</clipPath>
</defs>
</svg>
