<svg width="32" height="32" viewBox="0 0 32 32" fill="none" xmlns="http://www.w3.org/2000/svg">
<path d="M17 30.6667C15.1555 30.6667 13.4222 30.3167 11.8 29.6167C10.1777 28.9167 8.76663 27.9667 7.56663 26.7667C6.36663 25.5667 5.41663 24.1556 4.71663 22.5333C4.01663 20.9111 3.66663 19.1778 3.66663 17.3333C3.66663 15.4889 4.01663 13.7556 4.71663 12.1333C5.41663 10.5111 6.36663 9.1 7.56663 7.9C8.76663 6.7 10.1777 5.75 11.8 5.05C13.4222 4.35 15.1555 4 17 4C18.8444 4 20.5777 4.35 22.2 5.05C23.8222 5.75 25.2333 6.7 26.4333 7.9C27.6333 9.1 28.5833 10.5111 29.2833 12.1333C29.9833 13.7556 30.3333 15.4889 30.3333 17.3333C30.3333 19.1778 29.9833 20.9111 29.2833 22.5333C28.5833 24.1556 27.6333 25.5667 26.4333 26.7667C25.2333 27.9667 23.8222 28.9167 22.2 29.6167C20.5777 30.3167 18.8444 30.6667 17 30.6667ZM17 28C19.9777 28 22.5 26.9667 24.5666 24.9C26.6333 22.8333 27.6666 20.3111 27.6666 17.3333C27.6666 17.1778 27.6611 17.0167 27.65 16.85C27.6388 16.6833 27.6333 16.5444 27.6333 16.4333C27.5222 17.0778 27.2222 17.6111 26.7333 18.0333C26.2444 18.4556 25.6666 18.6667 25 18.6667H22.3333C21.6 18.6667 20.9722 18.4056 20.45 17.8833C19.9277 17.3611 19.6666 16.7333 19.6666 16V14.6667H14.3333V12C14.3333 11.2667 14.5944 10.6389 15.1166 10.1167C15.6388 9.59444 16.2666 9.33333 17 9.33333H18.3333C18.3333 8.82222 18.4722 8.37222 18.75 7.98333C19.0277 7.59444 19.3666 7.27778 19.7666 7.03333C19.3222 6.92222 18.8722 6.83333 18.4166 6.76667C17.9611 6.7 17.4888 6.66667 17 6.66667C14.0222 6.66667 11.5 7.7 9.43329 9.76667C7.36663 11.8333 6.33329 14.3556 6.33329 17.3333H13C14.4666 17.3333 15.7222 17.8556 16.7666 18.9C17.8111 19.9444 18.3333 21.2 18.3333 22.6667V24H14.3333V27.6667C14.7777 27.7778 15.2166 27.8611 15.65 27.9167C16.0833 27.9722 16.5333 28 17 28Z" fill="white"/>
</svg>
