<svg width="64" height="64" viewBox="0 0 64 64" fill="none" xmlns="http://www.w3.org/2000/svg">
<path d="M19.2 19.2H12.8V25.6H19.2V19.2Z" fill="white"/>
<path d="M25.6 6.40002H19.2V12.8H25.6V6.40002Z" fill="black"/>
<path d="M19.2 6.40002H12.8V12.8H19.2V6.40002Z" fill="black"/>
<path d="M32 12.8H25.6V19.2H32V12.8Z" fill="black"/>
<path d="M38.4 12.8H32V19.2H38.4V12.8Z" fill="black"/>
<path d="M44.8 6.40002H38.4V12.8H44.8V6.40002Z" fill="black"/>
<path d="M51.2 6.40002H44.8V12.8H51.2V6.40002Z" fill="black"/>
<path d="M57.6 6.40002H51.2V12.8H57.6V6.40002Z" fill="black"/>
<path d="M64 12.8H57.6V19.2H64V12.8Z" fill="black"/>
<path d="M64 19.2H57.6V25.6H64V19.2Z" fill="black"/>
<path d="M12.8 6.40002H6.40002V12.8H12.8V6.40002Z" fill="black"/>
<path d="M6.4 12.8H0V19.2H6.4V12.8Z" fill="black"/>
<path d="M6.4 19.2H0V25.6H6.4V19.2Z" fill="black"/>
<path d="M6.4 25.6H0V32H6.4V25.6Z" fill="black"/>
<path d="M64 25.6H57.6V32H64V25.6Z" fill="black"/>
<path d="M12.8 32H6.40002V38.4H12.8V32Z" fill="black"/>
<path d="M19.2 38.4H12.8V44.8H19.2V38.4Z" fill="black"/>
<path d="M25.6 44.8H19.2V51.2001H25.6V44.8Z" fill="black"/>
<path d="M32 51.2H25.6V57.5999H32V51.2Z" fill="black"/>
<path d="M38.4 51.2H32V57.5999H38.4V51.2Z" fill="black"/>
<path d="M44.8 44.8H38.4V51.2001H44.8V44.8Z" fill="black"/>
<path d="M51.2 38.4H44.8V44.8H51.2V38.4Z" fill="black"/>
<path d="M57.6 32H51.2V38.4H57.6V32Z" fill="black"/>
<path d="M12.8 12.8H6.40002V19.2H12.8V12.8Z" fill="#9D0000"/>
<path d="M19.2 12.8H12.8V19.2H19.2V12.8Z" fill="#FF0000"/>
<path d="M25.6 12.8H19.2V19.2H25.6V12.8Z" fill="#FF0000"/>
<path d="M12.8 19.2H6.40002V25.6H12.8V19.2Z" fill="#9D0000"/>
<path d="M19.2 19.2H12.8V25.6H19.2V19.2Z" fill="#FF0000"/>
<path d="M25.6 19.2H19.2V25.6H25.6V19.2Z" fill="#FF0000"/>
<path d="M12.8 25.6H6.40002V32H12.8V25.6Z" fill="#9D0000"/>
<path d="M19.2 25.6H12.8V32H19.2V25.6Z" fill="#FF0000"/>
<path d="M25.6 25.6H19.2V32H25.6V25.6Z" fill="#FF0000"/>
<path d="M19.2 32H12.8V38.4H19.2V32Z" fill="#9D0000"/>
<path d="M25.6 32H19.2V38.4H25.6V32Z" fill="#FF0000"/>
<path d="M25.6 38.4H19.2V44.8H25.6V38.4Z" fill="#9D0000"/>
<path d="M32 38.4H25.6V44.8H32V38.4Z" fill="#FF0000"/>
<path d="M32 44.8H25.6V51.2001H32V44.8Z" fill="#9D0000"/>
<path d="M38.4 44.8H32V51.2001H38.4V44.8Z" fill="#FF0000"/>
<path d="M38.4 38.4H32V44.8H38.4V38.4Z" fill="#FF0000"/>
<path d="M32 32H25.6V38.4H32V32Z" fill="#FF0000"/>
<path d="M38.4 32H32V38.4H38.4V32Z" fill="#FF0000"/>
<path d="M38.4 25.6H32V32H38.4V25.6Z" fill="#FF0000"/>
<path d="M32 25.6H25.6V32H32V25.6Z" fill="#FF0000"/>
<path d="M32 19.2H25.6V25.6H32V19.2Z" fill="#FF0000"/>
<path d="M38.4 19.2H32V25.6H38.4V19.2Z" fill="#FF0000"/>
<path d="M44.8 25.6H38.4V32H44.8V25.6Z" fill="#FF0000"/>
<path d="M51.2 32H44.8V38.4H51.2V32Z" fill="#FF0000"/>
<path d="M44.8 32H38.4V38.4H44.8V32Z" fill="#FF0000"/>
<path d="M44.8 38.4H38.4V44.8H44.8V38.4Z" fill="#FF0000"/>
<path d="M51.2 25.6H44.8V32H51.2V25.6Z" fill="#FF0000"/>
<path d="M57.6 25.6H51.2V32H57.6V25.6Z" fill="#FF5757"/>
<path d="M44.8 19.2H38.4V25.6H44.8V19.2Z" fill="#FF0000"/>
<path d="M51.2 19.2H44.8V25.6H51.2V19.2Z" fill="#FF0000"/>
<path d="M57.6 19.2H51.2V25.6H57.6V19.2Z" fill="#FF5757"/>
<path d="M57.6 12.8H51.2V19.2H57.6V12.8Z" fill="#FF5757"/>
<path d="M51.2 12.8H44.8V19.2H51.2V12.8Z" fill="#FF5757"/>
<path d="M44.8 12.8H38.4V19.2H44.8V12.8Z" fill="#FF5757"/>
</svg>
