<svg width="32" height="32" viewBox="0 0 32 32" fill="none" xmlns="http://www.w3.org/2000/svg">
<g clip-path="url(#clip0_113_144)">
<path d="M0.5 25V22.9C0.5 21.9444 0.988889 21.1667 1.96667 20.5667C2.94444 19.9667 4.23333 19.6667 5.83333 19.6667C6.12222 19.6667 6.4 19.6722 6.66667 19.6833C6.93333 19.6944 7.18889 19.7222 7.43333 19.7667C7.12222 20.2333 6.88889 20.7222 6.73333 21.2333C6.57778 21.7444 6.5 22.2778 6.5 22.8333V25H0.5ZM8.5 25V22.8333C8.5 22.1222 8.69444 21.4722 9.08333 20.8833C9.47222 20.2944 10.0222 19.7778 10.7333 19.3333C11.4444 18.8889 12.2944 18.5556 13.2833 18.3333C14.2722 18.1111 15.3444 18 16.5 18C17.6778 18 18.7611 18.1111 19.75 18.3333C20.7389 18.5556 21.5889 18.8889 22.3 19.3333C23.0111 19.7778 23.5556 20.2944 23.9333 20.8833C24.3111 21.4722 24.5 22.1222 24.5 22.8333V25H8.5ZM26.5 25V22.8333C26.5 22.2556 26.4278 21.7111 26.2833 21.2C26.1389 20.6889 25.9222 20.2111 25.6333 19.7667C25.8778 19.7222 26.1278 19.6944 26.3833 19.6833C26.6389 19.6722 26.9 19.6667 27.1667 19.6667C28.7667 19.6667 30.0556 19.9611 31.0333 20.55C32.0111 21.1389 32.5 21.9222 32.5 22.9V25H26.5ZM11.3333 22.3333H21.7C21.4778 21.8889 20.8611 21.5 19.85 21.1667C18.8389 20.8333 17.7222 20.6667 16.5 20.6667C15.2778 20.6667 14.1611 20.8333 13.15 21.1667C12.1389 21.5 11.5333 21.8889 11.3333 22.3333ZM5.83333 18.3333C5.1 18.3333 4.47222 18.0722 3.95 17.55C3.42778 17.0278 3.16667 16.4 3.16667 15.6667C3.16667 14.9111 3.42778 14.2778 3.95 13.7667C4.47222 13.2556 5.1 13 5.83333 13C6.58889 13 7.22222 13.2556 7.73333 13.7667C8.24444 14.2778 8.5 14.9111 8.5 15.6667C8.5 16.4 8.24444 17.0278 7.73333 17.55C7.22222 18.0722 6.58889 18.3333 5.83333 18.3333ZM27.1667 18.3333C26.4333 18.3333 25.8056 18.0722 25.2833 17.55C24.7611 17.0278 24.5 16.4 24.5 15.6667C24.5 14.9111 24.7611 14.2778 25.2833 13.7667C25.8056 13.2556 26.4333 13 27.1667 13C27.9222 13 28.5556 13.2556 29.0667 13.7667C29.5778 14.2778 29.8333 14.9111 29.8333 15.6667C29.8333 16.4 29.5778 17.0278 29.0667 17.55C28.5556 18.0722 27.9222 18.3333 27.1667 18.3333ZM16.5 17C15.3889 17 14.4444 16.6111 13.6667 15.8333C12.8889 15.0556 12.5 14.1111 12.5 13C12.5 11.8667 12.8889 10.9167 13.6667 10.15C14.4444 9.38333 15.3889 9 16.5 9C17.6333 9 18.5833 9.38333 19.35 10.15C20.1167 10.9167 20.5 11.8667 20.5 13C20.5 14.1111 20.1167 15.0556 19.35 15.8333C18.5833 16.6111 17.6333 17 16.5 17ZM16.5 14.3333C16.8778 14.3333 17.1944 14.2056 17.45 13.95C17.7056 13.6944 17.8333 13.3778 17.8333 13C17.8333 12.6222 17.7056 12.3056 17.45 12.05C17.1944 11.7944 16.8778 11.6667 16.5 11.6667C16.1222 11.6667 15.8056 11.7944 15.55 12.05C15.2944 12.3056 15.1667 12.6222 15.1667 13C15.1667 13.3778 15.2944 13.6944 15.55 13.95C15.8056 14.2056 16.1222 14.3333 16.5 14.3333Z" fill="white"/>
</g>
<defs>
<clipPath id="clip0_113_144">
<rect width="32" height="32" fill="white"/>
</clipPath>
</defs>
</svg>
